<svg width="214" height="128" viewBox="0 0 214 128" fill="none" xmlns="http://www.w3.org/2000/svg">
<path d="M201.447 115.648C203.377 115.648 204.827 115.008 205.786 113.728C206.746 112.448 207.276 110.929 207.356 109.159C207.386 108.859 207.396 108.329 207.396 107.589C207.396 106.849 207.386 106.279 207.356 105.979C207.296 104.299 206.766 102.849 205.766 101.619C204.757 100.389 203.317 99.7793 201.447 99.7793C199.467 99.7793 198.017 100.399 197.107 101.639C196.197 102.879 195.697 104.509 195.617 106.519L195.577 107.719C195.577 113.008 197.537 115.658 201.447 115.658V115.648ZM200.667 118.868C197.777 118.868 195.607 117.928 194.157 116.058C192.707 114.188 191.927 111.818 191.817 108.949L191.777 107.709L191.817 106.469C191.927 103.629 192.717 101.269 194.177 99.3793C195.637 97.4894 197.797 96.5495 200.667 96.5495C203.537 96.5495 205.766 97.5694 207.366 99.6093V90.0599C207.366 89.7799 207.456 89.56 207.636 89.38C207.816 89.2 208.046 89.11 208.316 89.11H210.176C210.456 89.11 210.676 89.2 210.856 89.38C211.036 89.56 211.126 89.7899 211.126 90.0599V117.888C211.126 118.168 211.036 118.388 210.856 118.568C210.676 118.748 210.446 118.838 210.176 118.838H208.396C208.116 118.838 207.896 118.748 207.736 118.568C207.566 118.388 207.486 118.158 207.486 117.888V115.728C205.916 117.818 203.647 118.868 200.667 118.868ZM184.138 106.179V106.059C184.138 104.129 183.618 102.559 182.568 101.349C181.518 100.139 180.118 99.5293 178.348 99.5293C176.578 99.5293 175.149 100.139 174.129 101.349C173.109 102.559 172.599 104.129 172.599 106.059V106.179H184.128H184.138ZM178.348 118.868C175.538 118.868 173.289 117.988 171.609 116.238C169.929 114.488 169.009 112.098 168.839 109.069L168.799 107.659L168.839 106.299C169.009 103.319 169.929 100.949 171.609 99.1893C173.289 97.4294 175.538 96.5395 178.348 96.5395C181.378 96.5395 183.728 97.4994 185.398 99.4293C187.068 101.359 187.898 103.979 187.898 107.279V108.019C187.898 108.299 187.808 108.519 187.628 108.699C187.448 108.879 187.218 108.969 186.948 108.969H172.609V109.339C172.689 111.129 173.239 112.658 174.259 113.928C175.279 115.198 176.628 115.828 178.308 115.828C179.608 115.828 180.658 115.578 181.468 115.068C182.278 114.558 182.898 114.028 183.308 113.478C183.558 113.148 183.748 112.948 183.888 112.878C184.028 112.808 184.258 112.778 184.588 112.778H186.408C186.658 112.778 186.868 112.848 187.048 112.988C187.228 113.128 187.318 113.308 187.318 113.528C187.318 114.138 186.948 114.868 186.198 115.718C185.458 116.568 184.398 117.308 183.038 117.928C181.678 118.548 180.108 118.858 178.348 118.858V118.868ZM146.08 118.838C145.8 118.838 145.581 118.748 145.401 118.568C145.221 118.388 145.131 118.158 145.131 117.888V97.5294C145.131 97.2494 145.221 97.0295 145.401 96.8495C145.581 96.6695 145.81 96.5795 146.08 96.5795H147.86C148.16 96.5795 148.4 96.6595 148.56 96.8295C148.73 96.9995 148.81 97.2295 148.81 97.5294V99.7293C149.64 98.7094 150.59 97.9194 151.68 97.3694C152.77 96.8195 154.13 96.5395 155.75 96.5395C158.4 96.5395 160.45 97.3894 161.909 99.0793C163.369 100.769 164.099 103.009 164.099 105.799V117.878C164.099 118.158 164.009 118.378 163.829 118.558C163.649 118.738 163.419 118.828 163.149 118.828H161.249C160.969 118.828 160.749 118.738 160.57 118.558C160.39 118.378 160.3 118.148 160.3 117.878V106.049C160.3 104.069 159.82 102.519 158.85 101.419C157.89 100.319 156.51 99.7693 154.72 99.7693C152.93 99.7693 151.55 100.329 150.5 101.439C149.45 102.559 148.93 104.089 148.93 106.049V117.878C148.93 118.158 148.84 118.378 148.66 118.558C148.48 118.738 148.25 118.828 147.98 118.828H146.08V118.838ZM136.171 118.848C135.891 118.848 135.671 118.758 135.491 118.578C135.311 118.398 135.221 118.168 135.221 117.898V97.5394C135.221 97.2594 135.311 97.0395 135.491 96.8595C135.671 96.6795 135.901 96.5895 136.171 96.5895H137.991C138.271 96.5895 138.491 96.6795 138.671 96.8595C138.851 97.0395 138.941 97.2694 138.941 97.5394V117.898C138.941 118.178 138.851 118.398 138.671 118.578C138.491 118.758 138.261 118.848 137.991 118.848H136.171ZM137.091 89L139.731 91.6398L137.091 94.2796L134.451 91.6398L137.091 89ZM104.433 118.838C104.153 118.838 103.933 118.748 103.753 118.568C103.573 118.388 103.483 118.158 103.483 117.888V90.1299C103.483 89.8299 103.563 89.59 103.733 89.41C103.903 89.23 104.133 89.14 104.433 89.14H106.373C106.873 89.14 107.213 89.35 107.403 89.7599L116.202 106.669L125.092 89.7599C125.312 89.35 125.642 89.14 126.082 89.14H128.022C128.322 89.14 128.562 89.23 128.722 89.41C128.892 89.59 128.972 89.8299 128.972 90.1299V117.888C128.972 118.168 128.882 118.388 128.702 118.568C128.522 118.748 128.292 118.838 128.022 118.838H126.122C125.842 118.838 125.622 118.748 125.462 118.568C125.292 118.388 125.212 118.158 125.212 117.888V96.5795L118.142 110.259C117.862 110.839 117.422 111.129 116.822 111.129H115.582C115.003 111.129 114.563 110.839 114.263 110.259L107.233 96.5795V117.888C107.233 118.168 107.143 118.388 106.963 118.568C106.783 118.748 106.553 118.838 106.283 118.838H104.423H104.433ZM79.6949 118.838C79.4149 118.838 79.1949 118.748 79.0149 118.568C78.835 118.388 78.7449 118.158 78.7449 117.888V97.5294C78.7449 97.2494 78.835 97.0295 79.0149 96.8495C79.1949 96.6695 79.4249 96.5795 79.6949 96.5795H81.4748C81.7747 96.5795 82.0147 96.6595 82.1747 96.8295C82.3447 96.9995 82.4247 97.2295 82.4247 97.5294V99.7293C83.2547 98.7094 84.2046 97.9194 85.2945 97.3694C86.3844 96.8195 87.7444 96.5395 89.3643 96.5395C92.0141 96.5395 94.0639 97.3894 95.5238 99.0793C96.9837 100.769 97.7137 103.009 97.7137 105.799V117.878C97.7137 118.158 97.6237 118.378 97.4437 118.558C97.2637 118.738 97.0337 118.828 96.7638 118.828H94.8639C94.5839 118.828 94.3639 118.738 94.1839 118.558C94.0039 118.378 93.9139 118.148 93.9139 117.878V106.049C93.9139 104.069 93.434 102.519 92.464 101.419C91.5041 100.319 90.1242 99.7693 88.3343 99.7693C86.5444 99.7693 85.1645 100.329 84.1146 101.439C83.0647 102.559 82.5447 104.089 82.5447 106.049V117.878C82.5447 118.158 82.4547 118.378 82.2747 118.558C82.0947 118.738 81.8648 118.828 81.5948 118.828H79.6949V118.838ZM70.3255 106.179V106.059C70.3255 104.129 69.8056 102.559 68.7556 101.349C67.7057 100.139 66.3058 99.5293 64.5359 99.5293C62.766 99.5293 61.3361 100.139 60.3162 101.349C59.2963 102.559 58.7863 104.129 58.7863 106.059V106.179H70.3155H70.3255ZM64.5359 118.868C61.7261 118.868 59.4762 117.988 57.7964 116.238C56.1165 114.488 55.1965 112.098 55.0265 109.069L54.9865 107.659L55.0265 106.299C55.1965 103.319 56.1165 100.949 57.7964 99.1893C59.4762 97.4294 61.7261 96.5395 64.5359 96.5395C67.5657 96.5395 69.9155 97.4994 71.5854 99.4293C73.2553 101.359 74.0853 103.979 74.0853 107.279V108.019C74.0853 108.299 73.9953 108.519 73.8153 108.699C73.6353 108.879 73.4053 108.969 73.1353 108.969H58.7963V109.339C58.8763 111.129 59.4262 112.658 60.4462 113.928C61.4661 115.198 62.816 115.828 64.4959 115.828C65.7958 115.828 66.8457 115.578 67.6557 115.068C68.4656 114.558 69.0856 114.028 69.4956 113.478C69.7456 113.148 69.9355 112.948 70.0755 112.878C70.2155 112.808 70.4455 112.778 70.7755 112.778H72.5954C72.8454 112.778 73.0553 112.848 73.2353 112.988C73.4153 113.128 73.5053 113.308 73.5053 113.528C73.5053 114.138 73.1353 114.868 72.3854 115.718C71.6454 116.568 70.5855 117.308 69.2256 117.928C67.8657 118.548 66.2958 118.858 64.5359 118.858V118.868ZM41.1875 115.648C43.1673 115.648 44.6172 115.028 45.5272 113.788C46.4371 112.548 46.9371 110.919 47.0171 108.909C47.0471 108.629 47.0571 108.229 47.0571 107.709C47.0571 102.419 45.0972 99.7693 41.1875 99.7693C39.2576 99.7693 37.8077 100.409 36.8277 101.689C35.8478 102.969 35.3378 104.479 35.2778 106.219C35.2478 106.519 35.2379 107.059 35.2379 107.829C35.2379 108.599 35.2478 109.139 35.2778 109.439C35.3378 111.119 35.8678 112.568 36.8678 113.798C37.8777 115.028 39.3176 115.638 41.1875 115.638V115.648ZM32.468 126.308C32.1881 126.308 31.9681 126.228 31.7881 126.058C31.6081 125.888 31.5181 125.658 31.5181 125.358V97.5294C31.5181 97.2295 31.6081 96.9895 31.7881 96.8295C31.9681 96.6595 32.1981 96.5795 32.468 96.5795H34.2079C34.5079 96.5795 34.7479 96.6595 34.9079 96.8295C35.0779 96.9995 35.1579 97.2295 35.1579 97.5294V99.7293C36.7578 97.6094 39.0276 96.5495 41.9774 96.5495C44.9272 96.5495 47.0371 97.4694 48.487 99.2993C49.9369 101.129 50.6968 103.469 50.7768 106.309C50.8068 106.609 50.8168 107.079 50.8168 107.719C50.8168 108.359 50.8068 108.819 50.7768 109.129C50.6968 111.938 49.9269 114.268 48.487 116.118C47.0371 117.968 44.8672 118.888 41.9774 118.888C39.0876 118.888 36.7977 117.838 35.2778 115.748V125.378C35.2778 125.658 35.1879 125.878 35.0079 126.058C34.8279 126.238 34.5979 126.328 34.3279 126.328H32.468V126.308ZM14.4492 115.438C16.6491 115.438 18.419 114.768 19.7389 113.438C21.0588 112.098 21.7787 110.059 21.8887 107.299C21.9487 105.649 21.9687 104.539 21.9687 103.989C21.9687 103.379 21.9387 102.279 21.8887 100.679C21.7787 97.9194 21.0588 95.8695 19.7389 94.5196C18.419 93.1697 16.6491 92.4898 14.4492 92.4898C12.2494 92.4898 10.4795 93.1697 9.13959 94.5196C7.79968 95.8695 7.08973 97.9194 7.00974 100.679C6.97974 101.479 6.96974 102.579 6.96974 103.989C6.96974 105.399 6.97974 106.469 7.00974 107.299C7.08973 110.059 7.79968 112.098 9.1196 113.438C10.4395 114.778 12.2194 115.438 14.4492 115.438ZM14.4492 118.868C10.8695 118.868 8.09966 117.928 6.13979 116.038C4.17992 114.148 3.14999 111.309 3.04 107.499C3.01 106.669 3 105.499 3 103.989C3 102.479 3.01 101.319 3.04 100.519C3.14999 96.7695 4.21992 93.9297 6.23979 91.9998C8.26965 90.0699 10.9995 89.11 14.4392 89.11C17.879 89.11 20.6088 90.0699 22.6187 91.9998C24.6286 93.9297 25.6885 96.7695 25.7985 100.519C25.8585 102.119 25.8785 103.279 25.8785 103.989C25.8785 104.699 25.8485 105.849 25.7985 107.499C25.6885 111.299 24.6586 114.148 22.7187 116.038C20.7788 117.928 18.009 118.868 14.4292 118.868H14.4492Z" fill="#272532"/>
<path d="M103.158 2.28862L91.5367 22.4106L107.121 13.4147L131.702 37.995L111.094 2.28862C109.331 -0.762873 104.922 -0.762873 103.158 2.28862Z" fill="#F0AC74"/>
<path d="M122.706 22.4106L131.702 37.995L107.131 62.5655L142.837 41.9481C145.889 40.1846 145.889 35.7758 142.837 34.0122L122.706 22.3908V22.4106Z" fill="#F0AC74"/>
<path d="M107.131 13.4147L71.4147 34.0321C68.3632 35.7956 68.3632 40.2044 71.4147 41.9679L91.5367 53.5894L82.5408 38.0049L107.131 13.4147Z" fill="#F0AC74"/>
<path d="M107.131 62.5754L82.5606 38.0049L103.178 73.7114C104.941 76.7629 109.35 76.7629 111.114 73.7114L122.735 53.5794L107.151 62.5754H107.131Z" fill="#F0AC74"/>
<path d="M107.131 38.0049H121.873L107.131 23.2627V38.0049Z" fill="#F0AC74"/>
<path d="M107.131 38.0049L92.3888 38.0049L107.131 52.7472L107.131 38.0049Z" fill="#F0AC74"/>
<path d="M107.131 38.0049L107.131 52.7472L121.873 38.0049H107.131Z" fill="#F0AC74"/>
<path d="M107.131 38.0049V23.2627L92.3888 38.0049L107.131 38.0049Z" fill="#F0AC74"/>
<path d="M103.163 2.28617L91.547 22.4087L107.128 13.413V13.4191L131.707 37.9985L111.092 2.28921C109.329 -0.763071 104.924 -0.763071 103.16 2.28921L103.163 2.28617Z" fill="url(#paint0_linear_343_1201)"/>
<path d="M122.711 22.4087L131.71 37.9954L131.701 37.9985L107.128 62.5718L142.837 41.9597C145.889 40.1965 145.889 35.7913 142.837 34.0281L122.711 22.4087Z" fill="url(#paint1_linear_343_1201)"/>
<path d="M82.5482 37.9924L107.128 13.413L71.4184 34.025C68.3661 35.7883 68.3661 40.1935 71.4184 41.9567L91.5525 53.5761L82.5452 37.9954L82.5482 37.9924Z" fill="url(#paint2_linear_343_1201)"/>
<path d="M107.131 62.5748V62.5687L82.5574 37.9954H82.5513L103.166 73.7047C104.93 76.757 109.335 76.757 111.098 73.7047L122.72 53.576L107.137 62.5748H107.131Z" fill="url(#paint3_linear_343_1201)"/>
<path d="M107.131 37.9985V52.74L121.872 37.9985H107.131Z" fill="url(#paint4_linear_343_1201)"/>
<path d="M107.131 37.9985H92.3892L107.131 52.74V37.9985Z" fill="url(#paint5_linear_343_1201)"/>
<path d="M107.131 37.9985V23.2569L92.3892 37.9985H107.131Z" fill="url(#paint6_linear_343_1201)"/>
<path d="M107.131 37.9985H121.872L107.131 23.2569V37.9985Z" fill="url(#paint7_linear_343_1201)"/>
<defs>
<linearGradient id="paint0_linear_343_1201" x1="91.544" y1="18.9947" x2="131.71" y2="18.9947" gradientUnits="userSpaceOnUse">
<stop stop-color="#E6AF7B"/>
<stop offset="0.42" stop-color="#F3C07A"/>
<stop offset="0.8" stop-color="#C5A48A"/>
<stop offset="1" stop-color="#87A9A0"/>
</linearGradient>
<linearGradient id="paint1_linear_343_1201" x1="126.131" y1="22.4087" x2="126.131" y2="62.5748" gradientUnits="userSpaceOnUse">
<stop stop-color="#BACC9B"/>
<stop offset="0.29" stop-color="#9FCFA1"/>
<stop offset="0.52" stop-color="#81BEA5"/>
<stop offset="0.79" stop-color="#7EA3A3"/>
<stop offset="1" stop-color="#8D7997"/>
</linearGradient>
<linearGradient id="paint2_linear_343_1201" x1="88.1269" y1="53.5791" x2="88.1269" y2="13.413" gradientUnits="userSpaceOnUse">
<stop stop-color="#A85684"/>
<stop offset="0.27" stop-color="#C35074"/>
<stop offset="0.53" stop-color="#E27D69"/>
<stop offset="1" stop-color="#C9BC8F"/>
</linearGradient>
<linearGradient id="paint3_linear_343_1201" x1="82.5452" y1="56.9962" x2="122.714" y2="56.9962" gradientUnits="userSpaceOnUse">
<stop stop-color="#F6796C"/>
<stop offset="0.25" stop-color="#C5707C"/>
<stop offset="0.49" stop-color="#927393"/>
<stop offset="0.78" stop-color="#757FA3"/>
<stop offset="1" stop-color="#60A4AF"/>
</linearGradient>
<linearGradient id="paint4_linear_343_1201" x1="103.446" y1="49.0554" x2="118.188" y2="34.3138" gradientUnits="userSpaceOnUse">
<stop stop-color="#757FA3"/>
<stop offset="1" stop-color="#60A4AF"/>
</linearGradient>
<linearGradient id="paint5_linear_343_1201" x1="110.818" y1="49.0524" x2="96.0768" y2="34.3108" gradientUnits="userSpaceOnUse">
<stop stop-color="#C5707C"/>
<stop offset="1" stop-color="#ED986C"/>
</linearGradient>
<linearGradient id="paint6_linear_343_1201" x1="96.0738" y1="41.6831" x2="110.815" y2="26.9416" gradientUnits="userSpaceOnUse">
<stop stop-color="#F3C07A"/>
<stop offset="1" stop-color="#ED986C"/>
</linearGradient>
<linearGradient id="paint7_linear_343_1201" x1="103.446" y1="26.9416" x2="118.188" y2="41.6831" gradientUnits="userSpaceOnUse">
<stop stop-color="#5CB6A5"/>
<stop offset="1" stop-color="#99CC99"/>
</linearGradient>
</defs>
</svg>
